Coordinates
version=1
nRows=29
nColumns=22
inDegrees=yes

Units are S.I. units (second, meters, Newtons, ...)
If the header above contains a line with 'inDegrees', this indicates whether rotational values are in degrees (yes) or radians (no).

endheader
time	pelvis_tilt	pelvis_list	pelvis_rotation	pelvis_tx	pelvis_ty	pelvis_tz	hip_flexion_r	hip_adduction_r	hip_rotation_r	knee_angle_r	ankle_angle_r	subtalar_angle_r	hip_flexion_l	hip_adduction_l	hip_rotation_l	knee_angle_l	ankle_angle_l	subtalar_angle_l	lumbar_extension	lumbar_bending	lumbar_rotation
      4.69000000	     -0.22584416	     -0.68443718	    302.45144823	     -0.47026436	      0.92983510	      0.78026406	     24.93389439	     -7.08089018	      7.63575197	    -57.83509694	      4.36234315	      6.76616681	      5.07435548	     11.33839403	      6.71181262	    -22.39820803	     12.88787722	    -14.06341792	     -5.43538345	     -5.77051142	     -7.75795497
      4.70000000	     -0.29337501	     -0.79385446	    303.95026050	     -0.46566906	      0.93011905	      0.78567759	     25.18905972	     -7.18348854	      7.80746335	    -55.61845338	      5.09606288	      6.16516186	      4.29774264	     11.24547322	      8.14262902	    -22.23654636	     13.09213354	    -14.16587568	     -5.57256241	     -5.55479342	     -8.44121074
      4.71000000	     -0.37918880	     -0.89813734	    305.42653159	     -0.46113692	      0.93033930	      0.79104468	     25.39109468	     -7.25559581	      7.92760997	    -53.27948649	      5.62691423	      5.75129413	      3.54954829	     11.10002917	      9.55030530	    -22.07349220	     13.28715020	    -14.25685673	     -5.68487141	     -5.33602989	     -9.11804427
      4.72000000	     -0.47379012	     -0.99084389	    306.85982973	     -0.45668770	      0.93048085	      0.79639494	     25.55577952	     -7.29268780	      8.03031776	    -50.84432172	      5.99332153	      5.53431148	      2.82821858	     10.91238759	     10.90434745	    -21.90029346	     13.49315356	    -14.32031196	     -5.77106591	     -5.13071726	     -9.77560793
      4.73000000	     -0.56065618	     -1.08485936	    308.23091988	     -0.45235397	      0.93057468	      0.80175125	     25.67227511	     -7.28382939	      8.14809434	    -48.33011531	      6.20530671	      5.49053871	      2.10797225	     10.69004529	     12.20437524	    -21.70742550	     13.70676354	    -14.35192605	     -5.85925030	     -4.95087014	    -10.38074209
      4.74000000	     -0.63747946	     -1.17248397	    309.53022519	     -0.44811299	      0.93062099	      0.80717234	     25.75260764	     -7.23543221	      8.27925255	    -45.75397680	      6.26125634	      5.61277228	      1.37190861	     10.43271806	     13.42271771	    -21.45447547	     13.91542812	    -14.34160047	     -5.93509754	     -4.80375964	    -10.94307119
      4.75000000	     -0.69295319	     -1.25923991	    310.74430101	     -0.44397481	      0.93062970	      0.81268017	     25.79241284	     -7.14477915	      8.44187888	    -43.13170448	      6.18595125	      5.86398524	      0.60414143	     10.14848998	     14.56310860	    -21.13751035	     14.12874083	    -14.29331230	     -6.01510827	     -4.69609632	    -11.43625279
      4.76000000	     -0.72072943	     -1.34171690	    311.86244635	     -0.43992346	      0.93059949	      0.81831268	     25.79649628	     -7.01895126	      8.63642704	    -40.47902221	      5.99543646	      6.22264897	     -0.21045205	      9.84237568	     15.61211481	    -20.73436969	     14.34592779	    -14.21101832	     -6.09768088	     -4.63321663	    -11.85297154
      4.77000000	     -0.72436303	     -1.41794366	    312.89186864	     -0.43592524	      0.93051855	      0.82407952	     25.76560171	     -6.86656223	      8.83440972	    -37.80186339	      5.75646765	      6.65032559	     -1.06749422	      9.51427371	     16.56405079	    -20.25002248	     14.54230611	    -14.10583313	     -6.17734109	     -4.60939825	    -12.20839178
      4.78000000	     -0.69220825	     -1.48337180	    313.81968414	     -0.43198085	      0.93038314	      0.82999446	     25.70457880	     -6.69507324	      9.04750339	    -35.11697434	      5.45370429	      7.15296868	     -1.98095270	      9.17978317	     17.42100152	    -19.67062410	     14.74540630	    -13.97915633	     -6.26066573	     -4.63575899	    -12.48118468
      4.79000000	     -0.63407916	     -1.53823007	    314.65378653	     -0.42806600	      0.93017701	      0.83605914	     25.61508864	     -6.50849948	      9.23793995	    -32.42436945	      5.14329264	      7.70656540	     -2.94097189	      8.83417881	     18.18340371	    -19.00771824	     14.93148486	    -13.84077256	     -6.34028083	     -4.70090884	    -12.68552622
      4.80000000	     -0.54922450	     -1.58520944	    315.39779469	     -0.42416302	      0.92989549	      0.84226798	     25.49200708	     -6.31028996	      9.39015083	    -29.72593922	      4.83776945	      8.30270097	     -3.95046584	      8.48061351	     18.85519620	    -18.26500927	     15.10214832	    -13.69470229	     -6.42121912	     -4.79963989	    -12.82655013
      4.81000000	     -0.43608759	     -1.62785916	    316.05447872	     -0.42026767	      0.92953599	      0.84860886	     25.32846589	     -6.10108608	      9.50134323	    -27.02251067	      4.53243454	      8.94621053	     -5.01194466	      8.12283640	     19.44240264	    -17.44822726	     15.25900368	    -13.54224932	     -6.51242658	     -4.92791450	    -12.90431659
      4.82000000	     -0.29748894	     -1.66822068	    316.62536600	     -0.41637412	      0.92908626	      0.85508781	     25.11740962	     -5.87791210	      9.57184303	    -24.30835799	      4.24089833	      9.63296134	     -6.11588400	      7.76553098	     19.94182377	    -16.58104633	     15.39540027	    -13.38795471	     -6.61219526	     -5.08283750	    -12.93642160
      4.83000000	     -0.13734651	     -1.70877161	    317.12723830	     -0.41246892	      0.92853477	      0.86166549	     24.85686574	     -5.64506581	      9.59555975	    -21.59161372	      3.93694369	     10.36024840	     -7.25418238	      7.40976413	     20.37669630	    -15.67800405	     15.51773929	    -13.23166819	     -6.72858696	     -5.25381892	    -12.92267989
      4.84000000	      0.03671478	     -1.74362337	    317.56359426	     -0.40854305	      0.92785166	      0.86834265	     24.55909282	     -5.40289668	      9.58638893	    -18.89088754	      3.62353439	     11.12561600	     -8.41130877	      7.06147786	     20.75480330	    -14.75411487	     15.63170892	    -13.07186234	     -6.85051603	     -5.44028517	    -12.86833379
      4.85000000	      0.22060967	     -1.76870010	    317.96385686	     -0.40457783	      0.92702358	      0.87506960	     24.22879787	     -5.16518296	      9.53403456	    -16.22734767	      3.27364079	     11.86703020	     -9.55926923	      6.72710428	     21.08882698	    -13.85171410	     15.74001769	    -12.91099480	     -6.97912384	     -5.63766026	    -12.82792619
      4.86000000	      0.40581471	     -1.76853119	    318.32364306	     -0.40057080	      0.92601061	      0.88185067	     23.90169652	     -4.93621928	      9.45277456	    -13.65219858	      2.92990643	     12.57003159	    -10.67538641	      6.42085132	     21.39302630	    -12.98450993	     15.85768212	    -12.74496877	     -7.09354776	     -5.85195389	    -12.77410207
      4.87000000	      0.58938818	     -1.73369850	    318.66468665	     -0.39650473	      0.92479773	      0.88864832	     23.60652126	     -4.72865384	      9.32758488	    -11.23366519	      2.60442833	     13.16814276	    -11.73526979	      6.15160479	     21.68055335	    -12.18265141	     15.99850289	    -12.57731758	     -7.19066967	     -6.08667819	    -12.73184254
      4.88000000	      0.76379178	     -1.65763671	    319.00115532	     -0.39236442	      0.92337514	      0.89543442	     23.37488857	     -4.54491931	      9.13267000	     -9.04166930	      2.33036268	     13.60641940	    -12.71226876	      5.92453771	     21.95473486	    -11.47873082	     16.16074012	    -12.41448107	     -7.26084644	     -6.33806189	    -12.71171872
      4.89000000	      0.92472745	     -1.53611245	    319.34238894	     -0.38813110	      0.92174579	      0.90219069	     23.23623840	     -4.38293974	      8.85159909	     -7.15591016	      2.14214249	     13.86961626	    -13.59039969	      5.74390064	     22.21968402	    -10.89351161	     16.34657544	    -12.26223238	     -7.29917308	     -6.60296466	    -12.71846312
      4.90000000	      1.07017984	     -1.36931804	    319.69677986	     -0.38379506	      0.91992535	      0.90890329	     23.20777135	     -4.23889274	      8.48930396	     -5.63997930	      2.05521751	     13.97340466	    -14.36385909	      5.60895463	     22.48221060	    -10.43684141	     16.56044485	    -12.12278567	     -7.30567508	     -6.87895132	    -12.74956448
      4.91000000	      1.19686403	     -1.16099651	    320.07178557	     -0.37933366	      0.91794108	      0.91556640	     23.29089881	     -4.10978648	      8.07157721	     -4.52872358	      2.05775983	     13.94278203	    -15.03327452	      5.51371863	     22.75001822	    -10.10998406	     16.79593439	    -11.99771844	     -7.27911958	     -7.15823457	    -12.80307240
      4.92000000	      1.29414433	     -0.90099007	    320.48117248	     -0.37472383	      0.91580291	      0.92214780	     23.49663538	     -4.00709671	      7.63727843	     -3.83558756	      2.11040191	     13.82563415	    -15.57971250	      5.45923567	     23.04666336	     -9.91944502	     17.03991809	    -11.89596272	     -7.20413251	     -7.43973899	    -12.88131913
      4.93000000	      1.37275450	     -0.62553118	    320.91541662	     -0.36994268	      0.91358888	      0.92871096	     23.75853889	     -3.91422331	      7.29676084	     -3.51835243	      2.19564713	     13.64120509	    -16.06909143	      5.41252365	     23.35685043	     -9.80686114	     17.29291626	    -11.80634796	     -7.10880283	     -7.69995190	    -12.98744017
      4.94000000	      1.43201322	     -0.33766950	    321.38803275	     -0.36496671	      0.91134153	      0.93523171	     24.05139856	     -3.84318522	      7.06160405	     -3.53239594	      2.27074697	     13.35368318	    -16.49906414	      5.37094136	     23.71707250	     -9.78173308	     17.52059624	    -11.72409548	     -6.99456442	     -7.93735685	    -13.07945831
      4.95000000	      1.46678750	     -0.01927067	    321.87844850	     -0.35985581	      0.90906481	      0.94172022	     24.40817917	     -3.79781670	      6.99845686	     -3.88227459	      2.26588378	     12.84939923	    -16.84311777	      5.35158131	     24.05414186	     -9.85444113	     17.71707394	    -11.65236304	     -6.84704044	     -8.16976275	    -13.16807423
      4.96000000	      1.45195813	      0.29226732	    322.38488894	     -0.35457916	      0.90681761	      0.94821942	     24.77393958	     -3.74163285	      7.16954370	     -4.45570048	      2.11661383	     12.38375324	    -17.13981641	      5.29756610	     24.43358298	     -9.96400850	     17.89250371	    -11.59938237	     -6.65836377	     -8.34533324	    -13.22405729
      4.97000000	      1.38458514	      0.58697262	    322.89991415	     -0.34916215	      0.90466987	      0.95475514	     25.14498122	     -3.66021683	      7.54806506	     -5.21065491	      1.75353078	     11.92908598	    -17.40426660	      5.19311715	     24.82928996	    -10.07841675	     17.99729174	    -11.55966011	     -6.42950173	     -8.45918360	    -13.26893403
